<?xml version="1.0" encoding="UTF-8"?><svg xmlns="http://www.w3.org/2000/svg" xmlns:xlink="http://www.w3.org/1999/xlink" viewBox="0 0 1130.53 1046.25"><defs><style>.cls-1,.cls-2{fill:none;}.cls-3{clip-path:url(#clippath);}.cls-4{fill:#f8e6cb;mix-blend-mode:overlay;}.cls-5{fill:url(#linear-gradient);}.cls-5,.cls-6,.cls-7,.cls-8{mix-blend-mode:multiply;opacity:.2;}.cls-6{fill:url(#linear-gradient-3);}.cls-7{fill:url(#linear-gradient-2);}.cls-8{fill:url(#linear-gradient-4);}.cls-9{fill:url(#linear-gradient-5);mix-blend-mode:soft-light;}.cls-10{fill:url(#Degradado_sin_nombre_22);}.cls-2{stroke:#d8d8d8;stroke-miterlimit:10;}.cls-11{isolation:isolate;}</style><clipPath id="clippath"><rect class="cls-1" x="227.98" y="268.8" width="750" height="500"/></clipPath><linearGradient id="Degradado_sin_nombre_22" x1="602.98" y1="268.8" x2="602.98" y2="768.8" gradientUnits="userSpaceOnUse"><stop offset="0" stop-color="#f7ffff"/><stop offset="1" stop-color="#e3dbdb"/></linearGradient><linearGradient id="linear-gradient" x1="449.64" y1="735.73" x2="960.22" y2="735.73" gradientUnits="userSpaceOnUse"><stop offset="0" stop-color="#d1d5de"/><stop offset="1" stop-color="#dbdbdb"/></linearGradient><linearGradient id="linear-gradient-2" x1="0" y1="864.22" x2="510.58" y2="864.22" xlink:href="#linear-gradient"/><linearGradient id="linear-gradient-3" x1="619.95" y1="182.03" x2="1130.53" y2="182.03" xlink:href="#linear-gradient"/><linearGradient id="linear-gradient-4" x1="227.98" y1="364.06" x2="723.8" y2="364.06" xlink:href="#linear-gradient"/><linearGradient id="linear-gradient-5" x1="389.31" y1="697.85" x2="875.24" y2="697.85" xlink:href="#linear-gradient"/></defs><g class="cls-11"><g id="OBJECTS"><g class="cls-3"><rect class="cls-10" x="227.98" y="268.8" width="750" height="500"/><path class="cls-5" d="m910.46,814.1c-7.53-21.62-5.46-45.36-1.48-67.9,3.98-22.55,9.8-45,9.5-67.9-.5-37.39-18.42-74.23-47.68-97.51-29.26-23.28-69.32-32.45-105.74-23.98-23.03,5.36-44.68,17.34-68.31,18.31-24.26,1-47.31-9.72-71.19-14.1-56.7-10.41-117.47,18.12-149.2,66.25-31.73,48.13-34.74,112.69-11.52,165.45,23.22,52.76,70.82,93.23,125.34,111.98,54.51,18.74,115.18,16.57,169.87-1.66,26.82-8.94,52.35-21.59,79.54-29.3s57.23-10.12,83.08,1.32l37.54-19.83c-22.89-.61-42.22-19.51-49.76-41.13Z"/><path class="cls-7" d="m460.82,942.58c-7.53-21.62-5.46-45.36-1.48-67.9,3.98-22.55,9.8-45,9.5-67.9-.5-37.39-18.42-74.23-47.68-97.51-29.26-23.28-69.32-32.45-105.74-23.98-23.03,5.36-44.68,17.34-68.31,18.31-24.26,1-47.31-9.72-71.19-14.1-56.7-10.41-117.47,18.12-149.2,66.25-31.73,48.13-34.74,112.69-11.52,165.45,23.22,52.76,70.82,93.23,125.34,111.98,54.51,18.74,115.18,16.57,169.87-1.66,26.82-8.94,52.35-21.59,79.54-29.3,27.2-7.71,57.23-10.12,83.08,1.32l37.54-19.83c-22.89-.61-42.22-19.51-49.76-41.13Z"/><path class="cls-6" d="m1080.77,260.4c-7.54-21.62-5.46-45.36-1.48-67.9,3.98-22.55,9.8-45,9.5-67.9-.5-37.39-18.42-74.23-47.68-97.51-29.26-23.28-69.32-32.45-105.74-23.98-23.03,5.36-44.68,17.34-68.31,18.31-24.26,1-47.31-9.72-71.19-14.1-56.7-10.41-117.47,18.12-149.2,66.25-31.73,48.13-34.74,112.69-11.52,165.45,23.22,52.76,70.82,93.23,125.34,111.98,54.51,18.74,115.18,16.57,169.87-1.66,26.82-8.94,52.35-21.59,79.54-29.3,27.2-7.71,57.23-10.12,83.08,1.32l37.54-19.83c-22.89-.61-42.22-19.51-49.76-41.13Z"/><path class="cls-8" d="m723.8,268.81c-4.25,25.2-14.46,49.39-30.15,69.59-30.96,39.84-82.29,62.95-132.64,59.7-5.35-.34-10.74-.95-16.15-1.68-28.28-3.79-57.1-10.7-82.47,1.11-21.54,10.03-35.31,31.55-54.75,45.2-25.43,17.86-59.66,20.78-89.24,11.25-29.57-9.53-54.63-30.45-72.94-55.56-6.33-8.68-11.93-17.88-17.48-27.11v-102.5h495.82Z"/><path class="cls-4" d="m837.21,268.81c-6.27,5.83-13.53,10.55-21.62,13.67-14.61,5.65-31.08,6.74-44.34,15.07-17.47,10.97-25.59,32.06-29.99,52.21-4.39,20.16-6.39,41.34-16.32,59.42-20.58,37.51-71.75,50.41-112.32,36.81-27.01-9.06-49.57-27.32-67.76-49.57-9.12-11.16-17.14-23.31-24.06-35.81-15.64-28.25-27.11-59.36-48.56-83.49-2.58-2.91-5.38-5.69-8.34-8.31h373.31Z"/><path class="cls-4" d="m977.98,514.61v254.2h-365.82c1.23-10.72,3.48-21.32,6.86-31.64,11.41-34.93,36.16-65.52,67.54-84.24,16.58-9.9,35.02-16.49,54.32-18.64,25.13-2.81,53.46.58,72.83-15.67,11.65-9.78,17.31-24.71,24.57-38.08,20.68-38.04,59.63-67.16,102.82-70.22,12.39-.88,24.95.67,36.88,4.29Z"/><path class="cls-9" d="m875.24,768.81h-485.93c1.46-13.7,4.91-27.24,9.92-40.06,11.72-29.92,35.16-58.44,66.97-62.98,13.72-1.96,27.2.7,40.25,5.54,18.7,6.93,39.65,1.28,52.48-13.99,9.06-10.77,20.71-19.39,33.8-24.57,24.24-9.61,52.9-7.26,75.25,6.15,6.63,3.98,12.71,8.85,18.58,14.03,16.7,14.72,31.71,31.94,52.74,38.34,21.87,6.64,45.77-.03,68.18,4.45,32.85,6.57,56.99,36.54,66.53,68.65.44,1.47.85,2.95,1.23,4.44Z"/><circle class="cls-4" cx="423.39" cy="424.6" r="34.08" transform="translate(-84.14 743.92) rotate(-77.26)"/><circle class="cls-4" cx="825.51" cy="527.82" r="11.7" transform="translate(-142.48 679.62) rotate(-41.51)"/><path class="cls-4" d="m331.36,665.33c0,3.23-2.62,5.85-5.85,5.85s-5.85-2.62-5.85-5.85,2.62-5.85,5.85-5.85,5.85,2.62,5.85,5.85Z"/><path class="cls-4" d="m886.94,482.39c0,3.23-2.62,5.85-5.85,5.85s-5.85-2.62-5.85-5.85,2.62-5.85,5.85-5.85,5.85,2.62,5.85,5.85Z"/><path class="cls-2" d="m316.68,256.64c41.56-.05,82.76,19.09,109.53,50.89,23.21,27.58,35.17,62.8,55.08,92.84,19.91,30.05,53.54,56.4,88.98,49.8,24.33-4.53,43.67-23.94,55.11-45.88,11.44-21.95,16.4-46.57,22.52-70.55,6.13-23.98,13.91-48.32,29.76-67.33,20.1-24.09,52.73-37.09,83.89-33.43"/><path class="cls-2" d="m330.6,255.12c38.96-.05,77.58,17.9,102.68,47.7,21.76,25.85,32.97,58.87,51.63,87.03,18.67,28.17,50.19,52.87,83.41,46.68,22.81-4.25,40.94-22.44,51.66-43.01,10.73-20.57,15.37-43.66,21.11-66.14,5.74-22.48,13.04-45.3,27.9-63.11,18.84-22.58,49.43-34.77,78.64-31.33"/><path class="cls-2" d="m344.52,253.6c36.36-.04,72.41,16.7,95.82,44.52,20.31,24.12,30.77,54.94,48.19,81.22,17.42,26.29,46.84,49.34,77.84,43.56,21.29-3.96,38.2-20.94,48.21-40.14,10.01-19.2,14.34-40.74,19.7-61.72,5.36-20.98,12.17-42.27,26.04-58.9,17.58-21.07,46.13-32.45,73.39-29.24"/><path class="cls-2" d="m358.44,252.09c33.76-.04,67.23,15.51,88.97,41.33,18.85,22.4,28.57,51.01,44.74,75.41s43.49,45.81,72.27,40.45c19.76-3.68,35.47-19.44,44.76-37.27,9.29-17.82,13.32-37.83,18.29-57.3,4.98-19.48,11.3-39.25,24.17-54.69,16.32-19.57,42.83-30.13,68.14-27.15"/><path class="cls-2" d="m372.36,250.57c31.16-.04,62.05,14.31,82.11,38.15,17.4,20.67,26.36,47.08,41.29,69.6,14.93,22.52,40.14,42.28,66.7,37.33,18.24-3.4,32.74-17.94,41.31-34.4,8.58-16.45,12.29-34.91,16.88-52.89,4.59-17.98,10.43-36.23,22.31-50.47,15.07-18.06,39.53-27.81,62.89-25.06"/><path class="cls-2" d="m533.99,841.34c-6.88-25.1-11.89-52.45-2.28-76.63,12.6-31.68,47.55-49.43,81.4-53.49,33.85-4.07,67.94,2.65,101.94,5.24,34,2.59,70.41.35,98.44-19.08,38.86-26.94,51.62-79.44,86.69-111.17,29.24-26.45,73.38-35.18,110.49-21.83"/><path class="cls-2" d="m559.74,841.34c-6.51-23.74-11.25-49.62-2.16-72.49,11.92-29.97,44.98-46.76,77-50.6,32.03-3.85,64.27,2.51,96.43,4.96,32.16,2.45,66.61.33,93.12-18.05,36.77-25.49,48.83-75.15,82.01-105.16,27.66-25.02,69.42-33.28,104.52-20.65"/><path class="cls-2" d="m585.49,841.34c-6.13-22.39-10.61-46.78-2.03-68.35,11.24-28.26,42.41-44.09,72.61-47.71,30.2-3.63,60.6,2.37,90.93,4.67,30.33,2.31,62.81.31,87.8-17.02,34.67-24.03,46.04-70.86,77.32-99.16,26.08-23.6,65.45-31.38,98.55-19.47"/><path class="cls-2" d="m611.24,841.34c-5.76-21.03-9.97-43.95-1.91-64.21,10.56-26.55,39.84-41.42,68.21-44.82s56.93,2.22,85.42,4.39c28.49,2.17,59,.29,82.48-15.99,32.57-22.57,43.25-66.57,72.64-93.15,24.5-22.17,61.49-29.48,92.58-18.29"/><path class="cls-2" d="m636.99,841.34c-5.39-19.68-9.32-41.12-1.79-60.07,9.87-24.84,37.27-38.75,63.81-41.93,26.54-3.19,53.26,2.08,79.91,4.11,26.65,2.03,55.2.27,77.17-14.96,30.47-21.12,40.47-62.28,67.96-87.15,22.92-20.74,57.53-27.58,86.61-17.11"/><path class="cls-2" d="m220.55,468.43c-5.02,17.48,3.92,36.38,16.88,49.14,12.96,12.76,29.55,21.02,44.8,30.94,15.25,9.92,29.99,22.57,35.76,39.82,10.26,30.69-10.69,61.93-20.68,92.71-15.12,46.57-3.34,100.87,29.72,136.99"/><path class="cls-2" d="m208.69,472.04c-5.02,17.48,3.92,36.38,16.88,49.14,12.96,12.76,29.55,21.02,44.8,30.94,15.25,9.92,29.99,22.57,35.76,39.82,10.26,30.69-10.69,61.93-20.68,92.71-15.12,46.57-3.34,100.87,29.72,136.99"/><path class="cls-2" d="m196.83,475.65c-5.02,17.48,3.92,36.38,16.88,49.14,12.96,12.76,29.55,21.02,44.8,30.94,15.25,9.92,29.99,22.57,35.76,39.82,10.26,30.69-10.69,61.93-20.68,92.71-15.12,46.57-3.34,100.87,29.72,136.99"/><path class="cls-2" d="m184.96,479.26c-5.02,17.48,3.92,36.38,16.88,49.14,12.96,12.76,29.55,21.02,44.8,30.94,15.25,9.92,29.99,22.57,35.76,39.82,10.26,30.69-10.69,61.93-20.68,92.71-15.12,46.57-3.34,100.87,29.72,136.99"/><path class="cls-2" d="m803.82,81.94c2.54,18.01,18.4,31.63,35.44,38s35.55,7.16,53.52,10,36.58,8.4,48.88,21.8c21.88,23.85,15.47,60.91,18.88,93.09,5.17,48.69,38.05,93.48,82.95,113"/><path class="cls-2" d="m794.45,90.07c2.54,18.01,18.4,31.63,35.44,38,17.04,6.37,35.55,7.16,53.52,10,17.96,2.85,36.58,8.4,48.88,21.8,21.88,23.85,15.47,60.91,18.88,93.09,5.17,48.69,38.05,93.48,82.95,113"/><path class="cls-2" d="m785.09,98.2c2.54,18.01,18.4,31.63,35.44,38,17.04,6.37,35.55,7.16,53.52,10,17.97,2.85,36.58,8.4,48.88,21.8,21.88,23.85,15.47,60.91,18.88,93.09,5.17,48.69,38.05,93.48,82.95,113"/><path class="cls-2" d="m775.72,106.33c2.54,18.01,18.4,31.63,35.44,38,17.04,6.37,35.55,7.16,53.52,10,17.97,2.85,36.58,8.4,48.88,21.8,21.88,23.85,15.47,60.91,18.88,93.09,5.17,48.69,38.05,93.48,82.95,113"/></g></g></g></svg>