<?xml version="1.0" encoding="UTF-8"?><svg xmlns="http://www.w3.org/2000/svg" xmlns:xlink="http://www.w3.org/1999/xlink" viewBox="0 0 2895.57 2259.9"><defs><style>.cls-1,.cls-2{fill:none;}.cls-3{clip-path:url(#clippath);}.cls-4{fill:#f8e6cb;mix-blend-mode:overlay;}.cls-5{fill:url(#linear-gradient);}.cls-5,.cls-6,.cls-7,.cls-8{mix-blend-mode:multiply;opacity:.2;}.cls-6{fill:url(#linear-gradient-3);}.cls-7{fill:url(#linear-gradient-2);}.cls-8{fill:url(#linear-gradient-4);}.cls-9{fill:url(#linear-gradient-5);mix-blend-mode:soft-light;}.cls-10{fill:url(#Degradado_sin_nombre_22);}.cls-2{stroke:#d8d8d8;stroke-miterlimit:10;}.cls-11{isolation:isolate;}</style><clipPath id="clippath"><rect class="cls-1" x="583.92" y="580.61" width="1920.94" height="1080"/></clipPath><linearGradient id="Degradado_sin_nombre_22" x1="1544.39" y1="580.61" x2="1544.39" y2="1660.61" gradientUnits="userSpaceOnUse"><stop offset="0" stop-color="#f7ffff"/><stop offset="1" stop-color="#e3dbdb"/></linearGradient><linearGradient id="linear-gradient" x1="1151.65" y1="1589.18" x2="2459.36" y2="1589.18" gradientUnits="userSpaceOnUse"><stop offset="0" stop-color="#d1d5de"/><stop offset="1" stop-color="#dbdbdb"/></linearGradient><linearGradient id="linear-gradient-2" x1="0" y1="1866.71" x2="1307.72" y2="1866.71" xlink:href="#linear-gradient"/><linearGradient id="linear-gradient-3" x1="1587.85" y1="393.19" x2="2895.57" y2="393.19" xlink:href="#linear-gradient"/><linearGradient id="linear-gradient-4" x1="583.92" y1="786.37" x2="1853.84" y2="786.37" xlink:href="#linear-gradient"/><linearGradient id="linear-gradient-5" x1="997.12" y1="1507.36" x2="2241.71" y2="1507.36" xlink:href="#linear-gradient"/></defs><g class="cls-11"><g id="OBJECTS"><g class="cls-3"><rect class="cls-10" x="583.92" y="580.61" width="1920.94" height="1080"/><path class="cls-5" d="m2331.92,1758.45c-19.3-46.7-13.99-97.97-3.79-146.67,10.2-48.7,25.11-97.21,24.32-146.66-1.28-80.76-47.18-160.35-122.12-210.63-74.94-50.28-177.54-70.1-270.82-51.8-58.99,11.57-114.44,37.45-174.95,39.55-62.13,2.16-121.17-20.99-182.33-30.46-145.22-22.48-300.87,39.15-382.13,143.11-81.26,103.96-88.98,243.41-29.51,357.38,59.47,113.97,181.39,201.39,321.02,241.87,139.63,40.48,295.01,35.79,435.08-3.59,68.68-19.31,134.08-46.63,203.73-63.28,69.65-16.65,146.58-21.86,212.78,2.85l96.16-42.82c-58.62-1.32-108.14-42.15-127.44-88.84Z"/><path class="cls-7" d="m1180.28,2035.98c-19.3-46.7-13.99-97.97-3.79-146.67,10.2-48.7,25.11-97.21,24.32-146.66-1.28-80.76-47.18-160.35-122.12-210.63-74.94-50.28-177.54-70.1-270.82-51.8-58.99,11.57-114.44,37.45-174.95,39.55-62.13,2.16-121.17-20.99-182.33-30.46-145.22-22.48-300.87,39.15-382.13,143.11-81.26,103.96-88.98,243.41-29.51,357.38,59.47,113.97,181.39,201.39,321.02,241.87,139.63,40.48,295.01,35.79,435.08-3.59,68.68-19.31,134.07-46.63,203.73-63.28,69.65-16.65,146.58-21.86,212.78,2.85l96.16-42.82c-58.62-1.32-108.14-42.15-127.44-88.84Z"/><path class="cls-6" d="m2768.13,562.45c-19.3-46.7-13.99-97.97-3.79-146.67,10.2-48.7,25.11-97.21,24.32-146.66-1.28-80.76-47.18-160.35-122.12-210.63-74.94-50.28-177.54-70.1-270.82-51.8-58.99,11.57-114.44,37.45-174.95,39.55-62.13,2.16-121.17-20.99-182.33-30.46-145.22-22.48-300.87,39.14-382.13,143.11-81.26,103.96-88.98,243.41-29.51,357.38,59.47,113.97,181.39,201.39,321.02,241.87,139.63,40.48,295.01,35.79,435.08-3.59,68.68-19.31,134.07-46.63,203.73-63.28,69.65-16.65,146.58-21.86,212.78,2.85l96.16-42.82c-58.62-1.32-108.14-42.15-127.44-88.84Z"/><path class="cls-8" d="m1853.84,580.62c-10.89,54.43-37.04,106.68-77.22,150.31-79.3,86.05-210.77,135.97-339.72,128.95-13.7-.73-27.51-2.05-41.36-3.63-72.43-8.19-146.25-23.11-211.23,2.4-55.17,21.66-90.44,68.15-140.23,97.63-65.13,38.58-152.8,44.88-228.57,24.3-75.74-20.58-139.92-65.77-186.82-120.01-16.21-18.75-30.56-38.62-44.77-58.56v-221.4h1269.92Z"/><path class="cls-4" d="m2144.31,580.62c-16.06,12.59-34.65,22.79-55.37,29.53-37.42,12.2-79.6,14.56-113.57,32.55-44.75,23.7-65.54,69.25-76.81,112.77-11.24,43.55-16.37,89.29-41.8,128.35-52.71,81.02-183.77,108.89-287.68,79.51-69.18-19.57-126.96-59.01-173.55-107.07-23.36-24.11-43.9-50.35-61.62-77.35-40.06-61.02-69.44-128.22-124.37-180.34-6.61-6.29-13.78-12.29-21.36-17.95h956.14Z"/><path class="cls-4" d="m2504.86,1111.55v549.07h-936.96c3.15-23.16,8.91-46.05,17.57-68.34,29.22-75.45,92.61-141.52,172.99-181.96,42.47-21.38,89.69-35.62,139.13-40.26,64.36-6.07,136.92,1.25,186.54-33.85,29.84-21.12,44.34-53.37,62.93-82.25,52.97-82.17,152.73-145.07,263.35-151.68,31.73-1.9,63.9,1.45,94.46,9.27Z"/><path class="cls-9" d="m2241.71,1660.62H997.12c3.74-29.59,12.58-58.84,25.41-86.53,30.02-64.63,90.05-126.23,171.53-136.04,35.14-4.23,69.67,1.51,103.09,11.97,47.9,14.97,101.55,2.76,134.41-30.22,23.2-23.26,53.04-41.88,86.57-53.07,62.08-20.76,135.49-15.68,192.73,13.28,16.98,8.6,32.55,19.12,47.59,30.3,42.77,31.8,81.22,68.99,135.08,82.81,56.01,14.34,117.23-.06,174.63,9.61,84.14,14.19,145.97,78.93,170.4,148.28,1.13,3.18,2.18,6.37,3.15,9.59Z"/><ellipse class="cls-4" cx="1084.42" cy="917.14" rx="87.29" ry="73.62"/><ellipse class="cls-4" cx="2114.34" cy="1140.08" rx="29.97" ry="25.27"/><path class="cls-4" d="m848.69,1437.11c0,6.98-6.71,12.64-14.98,12.64s-14.98-5.66-14.98-12.64,6.71-12.64,14.98-12.64,14.98,5.66,14.98,12.64Z"/><path class="cls-4" d="m2271.68,1041.97c0,6.98-6.71,12.64-14.98,12.64s-14.98-5.66-14.98-12.64,6.71-12.64,14.98-12.64,14.98,5.66,14.98,12.64Z"/><path class="cls-2" d="m811.1,554.34c106.46-.11,211.98,41.24,280.54,109.92,59.45,59.56,90.08,135.64,141.08,200.54,51,64.9,137.13,121.82,227.89,107.56,62.32-9.79,111.85-51.7,141.15-99.1,29.3-47.4,41.99-100.6,57.68-152.39,15.69-51.79,35.62-104.38,76.23-145.42,51.48-52.03,135.05-80.12,214.86-72.2"/><path class="cls-2" d="m846.75,551.06c99.79-.1,198.71,38.66,262.98,103.04,55.73,55.84,84.44,127.15,132.25,187.99,47.81,60.84,128.55,114.19,213.63,100.83,58.42-9.17,104.85-48.47,132.32-92.9,27.47-44.44,39.37-94.3,54.07-142.85,14.71-48.55,33.39-97.85,71.46-136.32,48.26-48.78,126.6-75.1,201.41-67.68"/><path class="cls-2" d="m882.41,547.78c93.13-.1,185.45,36.08,245.42,96.16,52.01,52.11,78.8,118.67,123.42,175.44,44.62,56.78,119.97,106.57,199.37,94.1,54.52-8.56,97.85-45.23,123.49-86.7,25.64-41.47,36.74-88.01,50.46-133.32,13.73-45.31,31.16-91.31,66.69-127.22,45.03-45.52,118.15-70.09,187.96-63.16"/><path class="cls-2" d="m918.06,544.5c86.47-.09,172.18,33.5,227.87,89.28,48.29,48.38,73.16,110.18,114.59,162.89,41.43,52.71,111.38,98.95,185.1,87.37,50.62-7.95,90.85-41.99,114.65-80.5,23.8-38.5,34.11-81.71,46.85-123.78,12.75-42.07,28.93-84.78,61.92-118.12,41.81-42.26,109.7-65.07,174.52-58.64"/><path class="cls-2" d="m953.72,541.22c79.81-.08,158.91,30.91,210.31,82.4,44.57,44.65,67.53,101.69,105.76,150.34,38.23,48.65,102.8,91.32,170.84,80.64,46.72-7.34,83.85-38.76,105.82-74.29,21.97-35.54,31.48-75.41,43.24-114.24,11.76-38.83,26.7-78.25,57.15-109.02,38.59-39.01,101.24-60.06,161.07-54.12"/><path class="cls-2" d="m1367.68,1817.29c-17.61-54.21-30.47-113.29-5.84-165.53,32.26-68.44,121.78-106.76,208.49-115.55,86.71-8.78,174.01,5.73,261.09,11.32,87.08,5.58,180.35.75,252.12-41.21,99.54-58.19,132.21-171.59,222.03-240.12,74.9-57.14,187.95-75.98,282.99-47.16"/><path class="cls-2" d="m1433.64,1817.29c-16.66-51.29-28.82-107.17-5.53-156.59,30.52-64.74,115.2-101,197.23-109.3,82.02-8.31,164.61,5.42,246.99,10.71,82.38,5.28,170.6.71,238.5-38.98,94.16-55.05,125.07-162.32,210.04-227.15,70.85-54.05,177.8-71.88,267.7-44.61"/><path class="cls-2" d="m1499.59,1817.29c-15.71-48.36-27.17-101.05-5.21-147.65,28.78-61.05,108.62-95.23,185.96-103.06,77.34-7.83,155.21,5.11,232.88,10.09,77.67,4.98,160.86.67,224.88-36.76,88.79-51.91,117.93-153.05,198.04-214.18,66.8-50.97,167.64-67.77,252.41-42.06"/><path class="cls-2" d="m1565.54,1817.29c-14.76-45.43-25.53-94.93-4.89-138.7,27.04-57.35,102.05-89.46,174.7-96.82,72.66-7.36,145.81,4.8,218.78,9.48,72.97,4.68,151.12.63,211.26-34.53,83.41-48.76,110.79-143.78,186.05-201.21,62.76-47.88,157.49-63.67,237.13-39.52"/><path class="cls-2" d="m1631.5,1817.29c-13.81-42.5-23.88-88.81-4.58-129.76,25.29-53.65,95.47-83.69,163.44-90.58,67.97-6.88,136.41,4.49,204.68,8.87,68.26,4.38,141.38.59,197.64-32.3,78.03-45.62,103.64-134.51,174.05-188.23,58.71-44.79,147.34-59.56,221.84-36.97"/><path class="cls-2" d="m564.89,1011.82c-12.86,37.76,10.04,78.58,43.24,106.15,33.2,27.56,75.7,45.41,114.75,66.83,39.05,21.42,76.81,48.76,91.58,86.02,26.29,66.29-27.38,133.77-52.97,200.26-38.72,100.6-8.54,217.88,76.13,295.9"/><path class="cls-2" d="m534.51,1019.61c-12.86,37.76,10.04,78.58,43.24,106.15,33.2,27.56,75.7,45.41,114.75,66.83,39.05,21.42,76.81,48.76,91.58,86.02,26.29,66.29-27.38,133.77-52.97,200.26-38.72,100.6-8.54,217.88,76.13,295.9"/><path class="cls-2" d="m504.12,1027.41c-12.86,37.76,10.04,78.58,43.24,106.15,33.2,27.56,75.7,45.41,114.75,66.83,39.05,21.42,76.81,48.76,91.58,86.02,26.29,66.29-27.38,133.77-52.97,200.26-38.72,100.6-8.54,217.88,76.13,295.9"/><path class="cls-2" d="m473.73,1035.21c-12.86,37.76,10.04,78.58,43.24,106.15,33.2,27.56,75.7,45.41,114.75,66.83,39.05,21.42,76.81,48.76,91.58,86.02,26.29,66.29-27.38,133.77-52.97,200.26-38.72,100.6-8.54,217.88,76.13,295.9"/><path class="cls-2" d="m2058.77,177c6.5,38.9,47.13,68.32,90.76,82.08,43.63,13.76,91.06,15.46,137.08,21.61,46.01,6.15,93.7,18.14,125.19,47.09,56.03,51.51,39.61,131.57,48.36,201.08,13.24,105.17,97.45,201.91,212.46,244.08"/><path class="cls-2" d="m2034.79,194.56c6.5,38.9,47.13,68.32,90.76,82.08,43.63,13.76,91.06,15.46,137.08,21.61,46.01,6.15,93.7,18.14,125.19,47.09,56.03,51.51,39.61,131.57,48.36,201.08,13.24,105.17,97.45,201.91,212.46,244.08"/><path class="cls-2" d="m2010.81,212.12c6.5,38.9,47.13,68.32,90.76,82.08,43.63,13.76,91.06,15.46,137.08,21.61,46.01,6.15,93.7,18.14,125.19,47.09,56.03,51.51,39.61,131.57,48.36,201.08,13.24,105.17,97.45,201.91,212.46,244.08"/><path class="cls-2" d="m1986.82,229.67c6.5,38.9,47.13,68.32,90.76,82.08,43.63,13.76,91.06,15.46,137.08,21.61,46.01,6.15,93.7,18.14,125.19,47.09,56.03,51.51,39.61,131.57,48.36,201.08,13.24,105.17,97.45,201.91,212.46,244.08"/></g></g></g></svg>