<?xml version="1.0" encoding="UTF-8"?><svg id="Layer_1" xmlns="http://www.w3.org/2000/svg" viewBox="0 0 56.38 59.21"><defs><style>.cls-1{fill:#70c598;}</style></defs><g id="_9YnBru"><path d="m6.93,30.98c1.8,0,3.6,0,5.4,0,1.11,0,1.24.2,1.48,1.28.53,2.31.74,4.84,1.85,6.85,1.93,3.5,4.84,6.1,9.13,6.58,5.01.56,9.65-.21,13.66-3.56,2.85-2.37,4.02-5.49,4.04-9.05,0-2.25-.16-4.53-.56-6.74-.98-5.41-4.62-9.62-10.36-10.96-1.49-.35-3.08-.33-4.62-.35-1.26-.02-1.36.23-.81,1.34.61,1.23,1.23,2.46,1.82,3.7.5,1.06.14,1.6-1.02,1.52-3.8-.28-7.61-.58-11.41-.89-2.43-.2-4.86-.43-7.3-.64-1.43-.12-1.63-.5-1.12-1.81,1.72-4.4,3.39-8.83,5.13-13.22.57-1.44,1.26-2.84,1.97-4.23.52-1.02,1.19-1.02,1.87-.08.59.82,1.17,1.64,1.74,2.47.33.48.67.56,1.23.28,4.65-2.35,9.51-2.42,14.44-1.16,5.09,1.3,9.52,3.97,13.53,7.23,3.51,2.85,6.46,6.32,7.93,10.68.82,2.43,1.21,5.06,1.34,7.63.16,3.13.16,6.33-.35,9.41-1.1,6.55-4.19,12.01-9.94,15.68-2.59,1.66-5.17,3.34-7.83,4.89-1.74,1.01-3.71,1.35-5.72,1.39-3.86.07-7.68-.11-11.44-1.09-2.53-.66-4.91-1.68-7.09-3.11-3.21-2.1-6.55-4.06-9.02-7.11-2.02-2.49-3.28-5.37-3.95-8.47-.46-2.14-.76-4.33-.92-6.51-.13-1.73.16-1.87,1.86-1.86,1.68,0,3.36,0,5.04,0,0-.02,0-.04,0-.06Zm18.83-11.25c-.26-.63-.37-.94-.51-1.23-.52-1.07-1.07-2.13-1.58-3.2-.39-.82-.13-1.4.74-1.59.92-.2,1.86-.34,2.79-.42,6.43-.56,12.64,3.06,15.25,8.94,1.81,4.08,1.99,8.39,1.61,12.75-.31,3.6-2,6.46-4.8,8.73-2.75,2.22-5.89,3.45-9.36,3.78-2.43.23-4.9.24-7.27-.45-3.5-1.01-6.05-3.39-8.09-6.28-1.51-2.14-1.82-4.76-2.32-7.27-.12-.61-.35-.8-.95-.8-2.87.03-5.74.05-8.6.01-.81-.01-1.05.31-.93,1.02.28,1.71.47,3.45.86,5.14.9,3.89,2.55,7.4,5.69,10.01,1.31,1.09,2.72,2.07,4.12,3.05,2.4,1.69,4.91,3.19,7.73,4.09,4.19,1.35,8.51,1.54,12.85,1.33,1.25-.06,2.58-.31,3.71-.82,4.01-1.78,7.51-4.4,10.96-7.09,1.94-1.51,3.26-3.54,4.36-5.71,2.3-4.51,2.92-9.34,2.66-14.33-.07-1.28-.16-2.56-.29-3.84-.23-2.29-.65-4.53-1.78-6.58-2.74-4.94-6.64-8.65-11.51-11.5-4.69-2.74-9.53-4.6-15.06-4.21-2.41.17-4.68.74-6.76,2.02-1.25.77-1.55.7-2.39-.49-.5-.7-1.01-1.39-1.52-2.09-.13,0-.26.02-.4.02-1.97,5.15-3.95,10.3-5.98,15.61,5.65.45,11.07.89,16.77,1.35Z"/><path class="cls-1" d="m25.75,19.73c-5.7-.46-11.13-.89-16.77-1.35,2.04-5.31,4.01-10.46,5.98-15.61.13,0,.26-.02.4-.02.51.7,1.02,1.39,1.52,2.09.84,1.19,1.14,1.26,2.39.49,2.07-1.28,4.35-1.84,6.76-2.02,5.53-.39,10.37,1.47,15.06,4.21,4.87,2.85,8.77,6.56,11.51,11.5,1.13,2.05,1.55,4.29,1.78,6.58.13,1.28.22,2.56.29,3.84.26,4.99-.36,9.82-2.66,14.33-1.1,2.17-2.42,4.19-4.36,5.71-3.44,2.68-6.95,5.3-10.96,7.09-1.14.51-2.46.75-3.71.82-4.34.22-8.66.02-12.85-1.33-2.82-.91-5.33-2.4-7.73-4.09-1.4-.98-2.81-1.96-4.12-3.05-3.13-2.62-4.79-6.12-5.69-10.01-.39-1.69-.59-3.42-.86-5.14-.12-.72.12-1.04.93-1.02,2.87.04,5.73.02,8.6-.01.61,0,.83.19.95.8.5,2.51.81,5.14,2.32,7.27,2.04,2.89,4.59,5.26,8.09,6.28,2.37.69,4.84.68,7.27.45,3.47-.33,6.61-1.56,9.36-3.78,2.8-2.27,4.5-5.13,4.8-8.73.37-4.36.2-8.67-1.61-12.75-2.61-5.88-8.81-9.51-15.25-8.94-.94.08-1.87.23-2.79.42-.87.19-1.12.77-.74,1.59.51,1.08,1.06,2.13,1.58,3.2.14.29.25.6.51,1.23Z"/></g></svg>