<?xml version="1.0" encoding="UTF-8"?><svg id="Layer_1" xmlns="http://www.w3.org/2000/svg" viewBox="0 0 234.89 237.02"><path d="m234.89,68.66c-.12.97-.59,1.62-1.21,2.21-2.5,2.39-4.99,4.8-7.48,7.2-25.85,24.87-51.7,49.73-77.55,74.59-28.74,27.65-57.48,55.29-86.22,82.94-.2.19-.39.39-.6.57-1.72,1.56-4,.9-4.58-1.34-.59-2.28-1.13-4.58-1.7-6.87-6.4-25.94-12.8-51.87-19.21-77.81-6.74-27.31-13.49-54.61-20.24-81.92C10.81,46.8,5.51,25.37.22,3.93c-.06-.23-.12-.46-.16-.69C-.32,1.15,1.3-.44,3.36.11c2.81.74,5.59,1.58,8.39,2.39,15.74,4.53,31.48,9.06,47.21,13.59,38.16,10.98,76.31,21.96,114.47,32.94,19.59,5.64,39.17,11.29,58.76,16.93.72.21,1.49.36,1.93,1.03.33.51.52,1.11.77,1.67ZM49.2,179.16c-.07,1.07,11.79,49.09,12.29,49.87,1.96-1.55,36.46-34.89,36.95-35.74-16.42-4.71-32.82-9.42-49.24-14.13Zm-12.81-61.91c16.46,4.74,32.63,9.4,48.79,14.06.06-.18.12-.25.11-.32-.02-.19-.04-.39-.09-.58-3.99-16.08-7.98-32.17-11.97-48.25,0-.03-.04-.08-.07-.09-.03-.01-.08,0-.24.02-12.07,11.62-24.21,23.31-36.53,35.17Zm147.77-6.11c-.29-.14-.46-.24-.64-.29-16.01-4.57-32.01-9.14-48.02-13.71-.02,0-.06.03-.09.05-.03.03-.05.06-.13.15,4.02,16.29,8.05,32.62,12.13,49.16,12.34-11.87,24.52-23.58,36.75-35.35Zm-151.47,2.17c1.94-1.51,36.13-34.57,36.57-35.37-16.19-4.65-32.35-9.29-48.77-14,4.1,16.59,8.13,32.92,12.19,49.37Zm109.42,34.4c-.19-1.83-11.78-48.47-12.25-49.3-12.15,11.71-24.28,23.41-36.56,35.24,16.35,4.71,32.52,9.37,48.81,14.07ZM55.21,20.52C38.86,15.81,22.7,11.16,6.52,6.5c-.03,1,11.58,48.18,12.12,49.26,12.15-11.71,24.28-23.41,36.56-35.25Zm135.06,84.75c12.32-11.85,24.43-23.5,36.69-35.3-16.36-4.71-32.48-9.35-48.87-14.07,4.09,16.56,8.11,32.86,12.18,49.37ZM120.99,39.46c4.04,16.36,8.01,32.45,12.03,48.73,12.13-11.69,24.08-23.21,36.16-34.86-16.11-4.64-32.01-9.22-48.19-13.87Zm-21.58,148.61c-4.03-16.31-7.99-32.38-12.01-48.67-12.12,11.68-24.07,23.2-36.15,34.85,16.1,4.62,32.01,9.19,48.16,13.83ZM22.96,58.97c1.12.6,47.02,13.73,47.96,13.72-3.97-16.08-7.93-32.15-11.95-48.43-12.11,11.68-24.05,23.18-36.01,34.71Zm67.38,70.19c12.13-11.69,24.07-23.2,36.07-34.77-.32-.14-.48-.24-.67-.29-15.71-4.49-31.41-8.97-47.12-13.46-.02,0-.06.03-.09.05-.03.02-.05.06-.12.14,3.95,16.01,7.91,32.05,11.93,48.33Zm82.59-72.07c-12.11,11.67-24.04,23.18-36,34.7,1.05.6,47,13.74,47.95,13.72-3.96-16.06-7.92-32.11-11.95-48.42Zm-125.98,113.94c12.13-11.69,24.06-23.18,36.11-34.81-16.13-4.65-32.02-9.23-48.13-13.87,4.02,16.28,7.99,32.34,12.02,48.67ZM64.14,23.09c2.05,8.29,4.03,16.29,6,24.29,1.98,8.02,3.93,16.04,5.96,24.11,1.58-1.17,35.36-33.81,35.84-34.64-15.86-4.56-31.69-9.12-47.8-13.76Zm28.62,115.93c4.02,16.28,7.97,32.3,11.97,48.52,12.08-11.62,23.99-23.08,36.06-34.68-16.04-4.62-31.9-9.19-48.03-13.84Zm23.08-98.26c-12.05,11.6-23.95,23.04-35.99,34.65,16.08,4.61,31.9,9.16,47.93,13.76-4-16.2-7.94-32.19-11.95-48.4Z"/></svg>